<svg width="21" height="21" viewBox="0 0 21 21" fill="none" xmlns="http://www.w3.org/2000/svg">
<path d="M10.5 0.34375C4.9 0.34375 0.34375 4.9 0.34375 10.5C0.34375 16.1 4.9 20.6562 10.5 20.6562C16.1 20.6562 20.6562 16.1 20.6562 10.5C20.6562 4.9 16.1 0.34375 10.5 0.34375ZM10.5 1.90625C15.2547 1.90625 19.0938 5.74531 19.0938 10.5C19.0938 15.2547 15.2547 19.0938 10.5 19.0938C5.74531 19.0938 1.90625 15.2547 1.90625 10.5C1.90625 5.74531 5.74531 1.90625 10.5 1.90625ZM5.8125 9.71875V11.2812H15.1875V9.71875H5.8125Z" fill="black"/>
</svg>
